<svg xmlns="http://www.w3.org/2000/svg" width="18.602" height="18.6" viewBox="0 0 18.602 18.6"><defs><style>.a{fill:#8fb946;}</style></defs><g transform="translate(0 14.663)"><path class="a" d="M10.694,387.484H1.4a1.4,1.4,0,0,0-1.4,1.4v2.54H12.091v-2.54A1.4,1.4,0,0,0,10.694,387.484Z" transform="translate(0 -387.484)"/></g><g transform="translate(2.279 0)"><g transform="translate(0 0)"><path class="a" d="M76.3,14.891,67.817,6.4l1.639-1.636a.688.688,0,0,0,.942-1L66.863.233a.686.686,0,0,0-.971.971l-.029-.029L61.376,5.66l.029.032a.686.686,0,0,0-.971.971L63.966,10.2a.688.688,0,0,0,.974-.974l.029.029,1.639-1.636L75.091,16.1A.856.856,0,1,0,76.3,14.891Z" transform="translate(-60.232 -0.03)"/></g></g></svg>